<mxfile host="65bd71144e">
    <diagram id="OCeliohVpZ0w719LyYzf" name="Page-1">
        <mxGraphModel dx="581" dy="907" grid="1" gridSize="10" guides="1" tooltips="1" connect="1" arrows="1" fold="1" page="1" pageScale="1" pageWidth="1169" pageHeight="827" math="0" shadow="0">
            <root>
                <mxCell id="0"/>
                <mxCell id="1" parent="0"/>
                <mxCell id="2" value="embedded-io" style="rounded=0;whiteSpace=wrap;html=1;" parent="1" vertex="1">
                    <mxGeometry x="210" y="450" width="480" height="60" as="geometry"/>
                </mxCell>
                <mxCell id="3" value="embedded-mqtt" style="rounded=0;whiteSpace=wrap;html=1;" parent="1" vertex="1">
                    <mxGeometry x="210" y="390" width="480" height="60" as="geometry"/>
                </mxCell>
                <mxCell id="5" value="rustot::jobs" style="rounded=0;whiteSpace=wrap;html=1;" parent="1" vertex="1">
                    <mxGeometry x="570" y="330" width="120" height="60" as="geometry"/>
                </mxCell>
                <mxCell id="6" value="rustot::ota" style="rounded=0;whiteSpace=wrap;html=1;" parent="1" vertex="1">
                    <mxGeometry x="570" y="270" width="120" height="60" as="geometry"/>
                </mxCell>
                <mxCell id="7" value="rustot::shadows" style="rounded=0;whiteSpace=wrap;html=1;" parent="1" vertex="1">
                    <mxGeometry x="450" y="330" width="120" height="60" as="geometry"/>
                </mxCell>
                <mxCell id="8" value="rustot::dev_defender" style="rounded=0;whiteSpace=wrap;html=1;" parent="1" vertex="1">
                    <mxGeometry x="330" y="330" width="120" height="60" as="geometry"/>
                </mxCell>
                <mxCell id="9" value="rustot::provisioning" style="rounded=0;whiteSpace=wrap;html=1;" parent="1" vertex="1">
                    <mxGeometry x="210" y="330" width="120" height="60" as="geometry"/>
                </mxCell>
            </root>
        </mxGraphModel>
    </diagram>
</mxfile>